<svg width="33" height="29" xmlns="http://www.w3.org/2000/svg" xmlns:xlink="http://www.w3.org/1999/xlink" xmlns:svgjs="http://svgjs.com/svgjs" viewBox="0.446 0 32.107 29" fill="#95e1d3"><svg xmlns="http://www.w3.org/2000/svg" width="33" height="29" viewBox="1.5 1 31 28"><path paint-order="stroke fill markers" fill-rule="evenodd" d="M31 24h-7.5-2v2.5l2 2v.5h-13v-.5l2-2V24h-2H3a1.5 1.5 0 0 1-1.5-1.5v-20A1.5 1.5 0 0 1 3 1h28a1.5 1.5 0 0 1 1.5 1.5v20A1.5 1.5 0 0 1 31 24zm-.5-21h-27v17h27V3zM14 10c.414 0 .79.168 1.06.44l.94.938 2.94-2.939a1.5 1.5 0 0 1 2.121 2.121l-4 4a1.496 1.496 0 0 1-2.122 0l-2-2A1.5 1.5 0 0 1 14 10z"/></svg></svg>