<svg width="33" height="32" xmlns="http://www.w3.org/2000/svg" xmlns:xlink="http://www.w3.org/1999/xlink" xmlns:svgjs="http://svgjs.com/svgjs" viewBox="0 0.274 33 31.453" fill="#95e1d3"><svg xmlns="http://www.w3.org/2000/svg" width="33" height="32" viewBox="1 1 32 30.5"><path paint-order="stroke fill markers" fill-rule="evenodd" d="M31.74 10.503a15.72 15.72 0 0 0-8.243-8.243c1-.787 2.258-1.26 3.629-1.26A5.874 5.874 0 0 1 33 6.874c0 1.371-.473 2.629-1.26 3.629zM31.5 17c0 3.852-1.512 7.343-3.963 9.94l2.029 2.028a1.483 1.483 0 0 1-2.097 2.097l-2.18-2.178A14.419 14.419 0 0 1 17 31.5a14.42 14.42 0 0 1-8.276-2.603L6.561 31.06A1.5 1.5 0 1 1 4.44 28.94l2.011-2.012C4.008 24.332 2.5 20.845 2.5 17 2.5 8.992 8.992 2.5 17 2.5S31.5 8.992 31.5 17zM17 5.5C10.649 5.5 5.5 10.648 5.5 17c0 6.351 5.149 11.5 11.5 11.5S28.5 23.35 28.5 17c0-6.352-5.149-11.5-11.5-11.5zm6 13h-6a1.5 1.5 0 0 1-1.5-1.5V9a1.5 1.5 0 0 1 3 0v6.5H23a1.5 1.5 0 0 1 0 3zM2.287 10.705A5.967 5.967 0 0 1 1 7a6 6 0 0 1 6-6c1.4 0 2.685.483 3.706 1.287a16.055 16.055 0 0 0-8.419 8.418z"/></svg></svg>