<svg width="17" height="17" xmlns="http://www.w3.org/2000/svg" xmlns:xlink="http://www.w3.org/1999/xlink" xmlns:svgjs="http://svgjs.com/svgjs" fill="#95e1d3"><svg xmlns="http://www.w3.org/2000/svg" width="17" height="17" viewBox="2 1.015 16.001 16.001"><path paint-order="stroke fill markers" fill-rule="evenodd" d="M17.837 7.404a7.974 7.974 0 0 0-2.18-4.046 8.021 8.021 0 0 0-2.543-1.714A7.942 7.942 0 0 0 10 1.014a8.011 8.011 0 0 0-3.115.63 7.98 7.98 0 0 0-2.542 1.714 8.013 8.013 0 0 0-2.181 4.046 8.05 8.05 0 0 0 .467 4.725 7.955 7.955 0 0 0 1.714 2.543 8.056 8.056 0 0 0 2.542 1.714 7.992 7.992 0 0 0 3.115.63 7.96 7.96 0 0 0 3.114-.63 8.051 8.051 0 0 0 3.519-2.897A7.955 7.955 0 0 0 18 9.014c0-.541-.054-1.084-.163-1.61zM16.83 8.947c-.099-.022-2.411-.52-4.759-.224a21.21 21.21 0 0 0-.601-1.343c2.698-1.102 3.794-2.687 3.807-2.705a6.801 6.801 0 0 1 1.553 4.272zm-2.317-5.06c-.017.027-.99 1.508-3.57 2.474A34.607 34.607 0 0 0 8.39 2.375a6.826 6.826 0 0 1 6.123 1.513zm-6.15-1.506v.001l-.021.005c.007-.003.014-.004.022-.006zm-1.278.455a41.14 41.14 0 0 1 2.537 3.936c-3.28.872-6.128.838-6.308.834a6.842 6.842 0 0 1 3.77-4.77zM3.168 9.014c0-.072.003-.144.005-.216.12.003 3.497.08 7.015-.972.196.382.383.772.554 1.16-.09.026-.18.053-.27.082-3.686 1.192-5.556 4.51-5.556 4.51s.002.001.002.003a6.811 6.811 0 0 1-1.75-4.567zM10 15.847a6.803 6.803 0 0 1-4.352-1.566c.09.073.153.12.153.12s1.31-2.857 5.362-4.268l.045-.014c.961 2.498 1.358 4.59 1.46 5.188-.82.348-1.722.54-2.668.54zm3.818-1.165c-.07-.413-.434-2.418-1.33-4.88 2.206-.353 4.117.251 4.258.298a6.836 6.836 0 0 1-2.928 4.582z"/></svg></svg>