<svg width="17" height="15" xmlns="http://www.w3.org/2000/svg" xmlns:xlink="http://www.w3.org/1999/xlink" xmlns:svgjs="http://svgjs.com/svgjs" viewBox="0 0.194 17 14.612" fill="#95e1d3"><svg xmlns="http://www.w3.org/2000/svg" width="17" height="15" viewBox="2 1.263 16 13.753"><path paint-order="stroke fill markers" fill-rule="evenodd" d="M15.5 4.717v2.44h-1v-2.44H12v-.998h2.5V1.28h1v2.44H18v.998h-2.5zm-6.915-2.47c.888.49 1.408 1.287 1.408 2.33 0 .876-.541 1.566-1.24 2.102-.68.522-.81.742-.81 1.186 0 .378.73 1.024 1.112 1.289 1.114.774 1.444 1.493 1.444 2.693 0 1.497-1.444 3.169-4.116 3.169C4.04 15.016 2 13.896 2 12.398c0-1.52 1.866-2.987 4.21-2.987.255 0 .489-.01.73-.01-.32-.307-.573-.688-.573-1.151 0-.275.089-.55.213-.785-.127.009-.257-.012-.39-.012-1.925 0-3.215-1.391-3.215-3.057 0-1.631 1.78-3.133 3.673-3.133h4.22l-.945.983H8.585zm-1.93 7.552c-1.619-.017-3.07.97-3.07 2.156 0 1.21 1.17 2.094 2.79 2.094 2.276 0 3.07-.823 3.07-2.032 0-.146-.018-.29-.052-.428-.178-.685-.808-1.024-1.688-1.624a3.6 3.6 0 0 0-1.05-.166zm1.82-5.203C8.288 3.194 7.208 2.068 6.12 2.037c-1.087-.032-1.816 1.04-1.628 2.443.188 1.403 1.22 2.566 2.308 2.597 1.087.032 1.863-1.079 1.676-2.481z"/></svg></svg>