<svg width="14" height="17" xmlns="http://www.w3.org/2000/svg" xmlns:xlink="http://www.w3.org/1999/xlink" xmlns:svgjs="http://svgjs.com/svgjs" viewBox="0.509 0 12.982 17" fill="#95e1d3"><svg xmlns="http://www.w3.org/2000/svg" width="14" height="17" viewBox="1.749 2.012 12.246 16.036"><path paint-order="stroke fill markers" fill-rule="evenodd" d="M6.844 12.424c-.13.521-.262 1.066-.398 1.6-.135.526-.253 1.06-.449 1.543-.324.801-.737 1.575-1.277 2.201-.36.417-.283.25-.391.228-.083-.017-.09-.097-.106-.215-.088-.636-.028-1.372.005-2.087.037-.815.208-1.493.367-2.17.303-1.29.592-2.554.897-3.851.02-.087.075-.23.057-.279a4.014 4.014 0 0 1-.268-1.062 3.38 3.38 0 0 1 .087-1.215c.172-.661.57-1.248 1.184-1.461.39-.136.821-.075 1.083.082.27.161.456.417.542.778.093.385.025.845-.05 1.183-.166.76-.386 1.333-.585 2.068-.099.365-.21.739-.118 1.132.085.362.273.61.53.797.265.193.58.3 1.015.285.767-.027 1.3-.517 1.657-.98.57-.74.915-1.74 1.047-2.93a7.2 7.2 0 0 0 .043-1.258c-.054-.802-.306-1.447-.704-1.948a3.297 3.297 0 0 0-1.57-1.069c-.648-.212-1.545-.282-2.342-.145-1.448.248-2.47 1.07-3.072 2.207a4.427 4.427 0 0 0-.523 2.131c0 .657.162 1.166.424 1.563.083.125.205.23.286.373.116.204-.018.508-.075.728-.068.265-.076.633-.386.639-.128.002-.29-.092-.398-.152-.816-.451-1.311-1.271-1.514-2.334a5.587 5.587 0 0 1 0-2.025 5.77 5.77 0 0 1 2.747-3.84 6.53 6.53 0 0 1 2.442-.84c.318-.046.647-.065 1.003-.083a6.027 6.027 0 0 1 2.704.507 5.534 5.534 0 0 1 1.863 1.34 5.077 5.077 0 0 1 1.146 2.07c.126.431.249.895.249 1.429 0 .535-.114 1.008-.193 1.48-.296 1.767-1.137 3.212-2.398 4.035-.306.2-.677.384-1.097.506-.417.121-.892.213-1.402.177a2.879 2.879 0 0 1-1.24-.36c-.337-.19-.62-.425-.822-.778z"/></svg></svg>