<svg width="17" height="15" xmlns="http://www.w3.org/2000/svg" xmlns:xlink="http://www.w3.org/1999/xlink" xmlns:svgjs="http://svgjs.com/svgjs" viewBox="0 0.601 17 13.798" fill="#95e1d3"><svg xmlns="http://www.w3.org/2000/svg" width="17" height="15" viewBox="2 1.515 16 12.987"><path paint-order="stroke fill markers" fill-rule="evenodd" d="M12.883 1.516c1.271-.023 1.948.44 2.594 1.03.55-.048 1.262-.354 1.682-.567l.409-.224c-.24.649-.566 1.156-1.066 1.54-.11.087-.22.202-.36.257v.007c.712-.007 1.3-.328 1.858-.502v.008c-.293.466-.69.938-1.113 1.277l-.513.407c.01.755-.01 1.474-.152 2.108-.82 3.685-2.992 6.186-6.43 7.257-1.235.385-3.23.544-4.645.192a11.984 11.984 0 0 1-1.93-.63c-.33-.145-.636-.3-.929-.48L2 13.02c.32.01.692.098 1.05.04.322-.052.638-.038.936-.103.742-.163 1.402-.378 1.97-.71.275-.162.693-.35.889-.583a2.803 2.803 0 0 1-.977-.176c-1.062-.375-1.68-1.065-2.082-2.1.322.035 1.248.12 1.465-.064-.405-.022-.794-.257-1.073-.431-.854-.534-1.55-1.431-1.545-2.81.112.052.224.106.336.16.214.09.433.138.689.191.108.022.324.086.448.04H4.09c-.165-.192-.435-.32-.6-.527-.549-.682-1.062-1.73-.737-2.978.082-.317.213-.596.352-.854l.016.008c.064.133.206.231.296.343.28.347.626.659.977.934 1.2.937 2.279 1.514 4.012 1.94.44.108.949.19 1.474.192-.148-.43-.1-1.126.016-1.541.292-1.046.927-1.8 1.858-2.204.222-.096.47-.167.728-.223l.4-.048z"/></svg></svg>